<svg xmlns="http://www.w3.org/2000/svg" viewBox="0 0 968.94 411.99"><defs><style>.cls-1{fill:#07070c;}.cls-1,.cls-2{fill-rule:evenodd;}.cls-2,.cls-3{fill:#da291c;}</style></defs><g id="Capa_2" data-name="Capa 2"><g id="Capa_1-2" data-name="Capa 1"><polygon class="cls-1" points="613.54 64.25 590.47 283.23 542.06 283.23 565.13 64.25 613.54 64.25"/><path class="cls-1" d="M530.52,64.25l-20,188.08c-.62,7.21,3.29,10.92,12,10.92l-2.07,20H499.82c-11.74,0-21.21-2.67-28.22-7.82-7-5.36-9.89-13-9.06-23.08l7.21-68.6H424l-10.49,99.48H365.09l21.43-199h-13.8l2.26-20h61.6l-10.51,99.5H471.6l10.51-99.5Z"/><path class="cls-1" d="M350.67,64.25l-2.06,20H325.33c-11.94,0-20.39,1.24-25.13,3.71-9.27,4.94-13.8,11.53-13.8,19.57,0,7.83,3.71,15.45,10.92,23.28l44.29,47.59c10.92,11.33,16.27,24.72,16.27,40,0,20.4-9.47,36.88-28.42,49-16.28,10.51-36.88,15.86-62.22,15.86H231.6l2.47-20h31.11q21.33,0,32.76-8c7.82-5.57,11.53-12.57,11.53-21,0-8.85-3.91-17.92-12-26.78l-49.64-56.65a40.43,40.43,0,0,1-10.51-27.4c0-18.33,8.86-33.17,26.78-44.5C279,69.05,297.32,64.31,319,64.31Z"/><polygon class="cls-1" points="228.31 64.25 205.23 283.23 156.82 283.23 179.89 64.25 228.31 64.25"/><path class="cls-1" d="M159.52,110.19l-13.8,126.9c-1.45,13.18-8.24,23.9-20.4,32.34-13.18,9.27-29.46,13.8-49.24,13.8H60.2c-19.36,0-34.81-4.53-45.73-13.8C3.52,261-1.19,250.27.25,237.09l13.39-126.9c1.45-13,8.66-23.9,21.43-32.76,13-8.86,29-13.18,48.62-13.18H99.14c19.57,0,34.81,4.32,45.94,13.18s15.86,19.78,14.42,32.76Zm-47.59-5.57a17.2,17.2,0,0,0-5.77-14.42c-4.32-4.12-9.89-6-16.68-6a28.64,28.64,0,0,0-18.13,6c-5.15,4.12-8.24,8.86-8.86,14.42L47.64,243.06c-.83,5.56,1,10.3,5.56,14.42s10.09,6.18,17.1,6.18a30.73,30.73,0,0,0,18.54-6A20.86,20.86,0,0,0,97.49,243Z"/><path class="cls-2" d="M235.93,398.6c-8.45-2.27-15-3.92-19.57-5a48.34,48.34,0,0,0-9.27-1.44,5.57,5.57,0,0,0-3.51.83c-.61.41-.82,1.23-.82,2.47,0,2.47,1.44,4.32,4.53,6a29,29,0,0,0,12.16,2.27,31.56,31.56,0,0,0,9.27-1.24,22.07,22.07,0,0,0,7.21-3.91Zm10.5,2.27a30.48,30.48,0,0,1-11.91,8.24,39.33,39.33,0,0,1-15,2.88c-8,0-14.42-1.44-19.16-4.53s-7-7-7-12c0-3.71,1-6.59,3.3-8.45s5.77-2.88,10.3-2.88c3.71,0,11.74,1.65,23.9,5.15,4.32,1,7.62,2.06,10.09,2.68a22,22,0,0,0,2.89-5.36,17.6,17.6,0,0,0,1-5.56,11.39,11.39,0,0,0-2.27-7q-1.86-3.09-9.89-7.41c-6-3.5-10.09-6.8-12.36-9.68a17.66,17.66,0,0,1-3.09-10.51,22.77,22.77,0,0,1,8.45-18.13c5.56-4.74,12.77-7,21.63-7,5.56,0,10.3,1.23,13.8,3.5,3.71,2.47,5.36,5.56,5.36,9.06,0,2.06-.42,3.71-1.65,4.74a5.75,5.75,0,0,1-4.53,1.85h-.83c-.41-3.5-1.65-6-3.91-7.62s-5.56-2.47-9.68-2.47q-7.73,0-12.36,3.71a11.46,11.46,0,0,0-4.74,9.68c0,4.53,3.5,8.65,10.5,12.57a5.69,5.69,0,0,1,2.06,1.23c5.36,2.89,9.27,6.18,11.54,9.69a20.62,20.62,0,0,1,3.65,12.19,23.49,23.49,0,0,1-1.24,7.62,25.31,25.31,0,0,1-3.71,7l3.09.61,3.71.62-1.85,7c-2.27-.21-4.12-.41-5.77-.62-1.44-.21-2.88-.62-4.33-.82Zm9.89,1.44,2.06-7a28.15,28.15,0,0,0,6-.82,33.7,33.7,0,0,0,5.54-2.51c-.21-.21-.21-.42-.21-.83v-1c0-3.5,1.86-10.5,5.36-21a45.37,45.37,0,0,0,1.65-4.53A22.56,22.56,0,0,0,278,360.7c1.86-5.35,3.71-8.24,5.36-8.24a16.4,16.4,0,0,1,7,1.45c2.27.82,3.3,1.85,3.3,2.67a28.82,28.82,0,0,1-2.47,5.77q-2.46,5.25-4.33,9.89a127.22,127.22,0,0,0-4.53,12,23.64,23.64,0,0,0-1.24,6,4.44,4.44,0,0,0,.62,2.47,3.26,3.26,0,0,0,2.47.83c2.27,0,4.95-1.86,8-5.77a68,68,0,0,0,8.44-15.24,71.33,71.33,0,0,0,4.33-12.36c1.44-4.74,3.3-7.21,5.77-7.21a18,18,0,0,1,6,1c1.65.82,2.47,1.64,2.47,2.67a44.24,44.24,0,0,1-2.26,6q-2.46,5.25-4.33,9.89c-1.65,4.32-2.88,8-3.71,10.91a29.35,29.35,0,0,0-1.23,7.21,4.81,4.81,0,0,0,1.44,3.71c.82.62,2.68,1,5.36,1l-2.06,7h-.83c-4.94,0-8.44-.62-10.3-1.65-1.85-1.24-2.88-3.3-2.88-6.18a21.84,21.84,0,0,1,.62-4.33c.41-1.65,1-3.91,1.85-6.8-5.15,7.63-9.27,12.78-12.15,15.25a14.94,14.94,0,0,1-9.48,3.71,13.94,13.94,0,0,1-5.56-1,6.47,6.47,0,0,1-3.09-3.5,17.45,17.45,0,0,1-6.18,3.09,29.84,29.84,0,0,1-8,1.44Zm76.64-13a7.92,7.92,0,0,1,3.5,2.26,16.41,16.41,0,0,1,2.27,3.71,11.93,11.93,0,0,0,7.62-4.74c1.85-2.67,2.68-6,2.68-10.09a45.5,45.5,0,0,0-.42-4.94c-.41-1.65-.82-3.71-1.44-5.77a51.77,51.77,0,0,1-5.77,9.47,76.07,76.07,0,0,1-8.44,10.1Zm-20.4,13,1.86-7q4.95-.62,13-9.27a142.12,142.12,0,0,0,16.68-23.48,3.56,3.56,0,0,1-1.44-2.06,6.71,6.71,0,0,1-.62-2.89,9.56,9.56,0,0,1,3.09-7,10.77,10.77,0,0,1,7.42-2.89c1.85,0,3.29.42,4.12,1.45a4.5,4.5,0,0,1,1.65,3.71,8.59,8.59,0,0,1-1.24,4.32,25.11,25.11,0,0,1-3.91,4.33,52.94,52.94,0,0,1,6.59,9.47,21.9,21.9,0,0,1,1.85,8.66,21.26,21.26,0,0,1-1.44,8,16.34,16.34,0,0,1-3.71,6.39,8.35,8.35,0,0,0,2.68,1,20.94,20.94,0,0,0,3.71.2h1l-2.06,7h-1.44a52,52,0,0,1-5.57-.41,26.42,26.42,0,0,1-5.15-1.86,34.92,34.92,0,0,1-6.18,1.86,25.29,25.29,0,0,1-5.35.61,23,23,0,0,1-7.58-1.17,13.48,13.48,0,0,1-6-3.71,25,25,0,0,1-5.56,3.09,22.79,22.79,0,0,1-6.39,1.65Zm61.39-5a18.64,18.64,0,0,1-5.35,3.51,18.25,18.25,0,0,1-6.8,1.44l2.06-7a11.79,11.79,0,0,0,8.66-4.28c2.27-2.89,4.53-7.63,6.8-14.63L390,342.77c.83-2.47,1.65-5.56,2.68-9.06,1.44-6.18,4.33-9.27,8.24-9.27a31,31,0,0,1,5.77.41,2.23,2.23,0,0,1,1.44,2.06c0,.82-.82,2.88-2.06,6.18-.62,1.44-1,2.47-1.24,3.09L388,378.82q8-13,14.83-19c4.33-4.12,8.86-6.18,13-6.18a6.81,6.81,0,0,1,5.15,1.85,6.19,6.19,0,0,1,1.86,4.74q0,3.7-6.18,18.54l-1.24,3.3c-.82,2.06-1.44,3.91-2.06,5.77a20.14,20.14,0,0,0-.62,3.7,2.62,2.62,0,0,0,1.44,2.68c1,.62,2.89.83,5.77,1l-2.06,7h-1.23c-5.57,0-9.69-.62-12.36-2.27a7.42,7.42,0,0,1-3.92-7,23.29,23.29,0,0,1,1.44-7c1-2.88,2.48-6.8,4.54-11.53l.41-1c1.85-3.92,2.68-6.39,2.68-7a1.53,1.53,0,0,0-1.17-1.85,1.61,1.61,0,0,0-.69,0c-2.06,0-5.15,2.68-9.27,7.83A82.85,82.85,0,0,0,387,391.14c-.62,1.65-1.23,3.3-2.06,5.56-1.44,3.92-4.32,5.77-8.44,5.77-1.45,0-2.27,0-2.89-.41a1.13,1.13,0,0,1-.82-1.23,4.21,4.21,0,0,1,.2-1.45,21.74,21.74,0,0,1,1-2.06Zm43.88,5,2.06-7c4.12,0,7.63-2.26,10.3-6.59,2.89-4.53,5.77-11.54,8.24-21.63.42-1.65.83-3.5,1.24-6,1-5.15,4.53-7.83,10.3-7.83a6.69,6.69,0,0,1,3.09.62,2.06,2.06,0,0,1,1,1.64c0,1-.61,3.09-1.85,6.18a49.8,49.8,0,0,0-2.48,6.8l-4.94,15-.21.62c-1.23,3.71-1.85,6-1.85,7a3.27,3.27,0,0,0,1.44,3.09c.83.62,2.89.83,6,1l-2.06,7h-1.86a24.58,24.58,0,0,1-9.89-1.65,7.36,7.36,0,0,1-3.91-5.56,26,26,0,0,1-6.59,5.35,21,21,0,0,1-8,1.86Zm35-64.9a6.89,6.89,0,0,1-4.71-1.43,7.06,7.06,0,0,1-1.65-4.74,9.37,9.37,0,0,1,2.47-6.59,8,8,0,0,1,5.77-2.68,6,6,0,0,1,4.53,1.86,6.44,6.44,0,0,1,1.85,4.74,9.19,9.19,0,0,1-2.47,6.41,7.46,7.46,0,0,1-5.77,2.47Zm75.2,15a17.48,17.48,0,0,1,4.94,1.24,19.32,19.32,0,0,1,4.53,2.47,35.23,35.23,0,0,0,8.66-8.86,15.32,15.32,0,0,0,3.09-8.65c0-2.68-.62-4.74-1.86-6a6.79,6.79,0,0,0-5.35-2.27,12.46,12.46,0,0,0-5.15,1.24,19.7,19.7,0,0,0-5.15,3.09c-.42,2.88-1,5.76-1.65,8.65-.62,3.09-1.24,6-2.06,9.06Zm-10.72-1.85a49.73,49.73,0,0,0-8.79,10.55A104.43,104.43,0,0,0,496.77,386a24.21,24.21,0,0,0-1.23,6.8,3.05,3.05,0,0,0,.62,2.06,2,2,0,0,0,1.64.62c2.68,0,5.57-3.92,8.86-11.54,3.5-7.83,7-19,10.71-33.37Zm-2.47,39.76c1.86.41,3.3.82,4.74,1a24.38,24.38,0,0,0,3.5.41,12.9,12.9,0,0,0,10.51-4.94c2.88-3.3,4.12-7.42,4.12-12.36a15.25,15.25,0,0,0-.82-5.36,13.86,13.86,0,0,0-2.48-4.94,10.81,10.81,0,0,1-2.47.41h-4.32c-.83,0-1.65-.21-2.68-.21a146.05,146.05,0,0,1-4.54,14.42,65.9,65.9,0,0,1-5.56,11.54Zm-4.53,8a21.34,21.34,0,0,1-6.8,6.8,14.56,14.56,0,0,1-7.83,2.47c-3.29,0-5.56-1-7.21-3.29-1.85-2.27-2.67-5.36-2.67-9.69,0-4.53,1.23-9.88,3.5-15.86a95.47,95.47,0,0,1,20.22-31.65A57.49,57.49,0,0,1,520.43,338c0-.82.21-2.06.21-3.5.62-5.77,1.44-9.27,2.47-10.3a20.73,20.73,0,0,1,8.45-2.88A1.82,1.82,0,0,1,533,322a2.34,2.34,0,0,1,.62,1.65,2.17,2.17,0,0,1-.21,1,3.5,3.5,0,0,1-.2,1.24,28.93,28.93,0,0,1,6.59-3.5,25.65,25.65,0,0,1,6.8-1,13.15,13.15,0,0,1,10.5,4.53c2.68,2.88,4.12,6.8,4.12,11.74a22.33,22.33,0,0,1-4.73,13.8c-3.3,4.12-7.83,7.42-13.81,10.1a29,29,0,0,1,5,8.86,22.08,22.08,0,0,1,1.85,8.85,23.15,23.15,0,0,1-6.59,16.48,22.06,22.06,0,0,1-16.27,6.8,25.19,25.19,0,0,1-8-1,36.89,36.89,0,0,1-8.24-3.09ZM598.52,364a9.16,9.16,0,0,0-2.88-1.44,6.38,6.38,0,0,0-2.68-.62c-2.06,0-4.33.82-7,2.68a31.13,31.13,0,0,0-7.63,7.21,32.6,32.6,0,0,0-5.15,8.86,19.34,19.34,0,0,0-2.06,8.24,6.14,6.14,0,0,0,1,3.7,2.85,2.85,0,0,0,2.68,1.24c3.3,0,7-2.68,10.92-7.62,4.12-5,8.24-12.36,12.77-22.25Zm-5.35,19.57c-3.71,6.59-7.21,11.33-10.92,14.42a17.07,17.07,0,0,1-11.54,4.53,13,13,0,0,1-5.15-.82,6.18,6.18,0,0,1-3.5-2.47,23.71,23.71,0,0,1-5.77,2.26,42.91,42.91,0,0,1-7.83.83l2.06-7a20.74,20.74,0,0,0,5.15-.62,22.86,22.86,0,0,0,3.92-1.64c0-.62-.21-1.45-.21-2.27a10.23,10.23,0,0,1-.21-2.47,28.73,28.73,0,0,1,1.86-9.48,47,47,0,0,1,5.35-9.89,39.61,39.61,0,0,1,11.34-11.33,23.4,23.4,0,0,1,13-3.91,15.76,15.76,0,0,1,5.77,1,12.61,12.61,0,0,1,4.53,3.09l.83-2.27c.41-1.44.82-2.47,1.23-2.67a3.47,3.47,0,0,1,2.06-.62,14.41,14.41,0,0,1,6.18,1.23c1.86.83,2.68,1.65,2.68,2.89a51.43,51.43,0,0,1-2.26,4.74c-1.45,2.88-2.68,5.76-3.92,8.24-2.26,5.35-3.91,9.68-5.15,13.39a36.34,36.34,0,0,0-1.65,8.65,3.24,3.24,0,0,0,1.24,2.88,25.11,25.11,0,0,0,6,1.24l-2.06,6.8h-1c-5.35,0-9.06-.41-11.33-1.65a6,6,0,0,1-3.29-5.77,20.94,20.94,0,0,1,.62-4.53,70,70,0,0,1,2.06-6.8Zm12.77,18.75,2.06-7q6.48-.93,11.74-8.65t12.36-26.57a8,8,0,0,1-2.47-6,10.14,10.14,0,0,1,2.06-6.18,6.55,6.55,0,0,1,5.15-2.47,6.4,6.4,0,0,1,4.53,1.65A5.72,5.72,0,0,1,643,351.2c0,.82-.21,1.65-.21,2.26-.2.83-.61,1.45-.82,2.27,1.65,1,3.91,2.27,6.8,3.91,4.94,2.68,7.62,5.36,7.62,8,0,2.26-1.44,6.38-4.12,12.15-2.88,5.77-4.12,9.68-4.12,11.74a2.52,2.52,0,0,0,1.24,2.48c1,.61,3.5,1,7.41,1.44l-2.06,6.8h-1.44c-6.18,0-10.71-.62-13.39-2.06a7.41,7.41,0,0,1-4.12-7c0-2.88,1.24-7,3.91-12.77,2.68-5.56,3.92-9.27,3.92-10.71a3.15,3.15,0,0,0-1.44-2.47,20.12,20.12,0,0,0-4.54-3.09c-4.53,13.39-9.27,23.07-14.21,28.84s-10.71,8.86-17.51,9.27Z"/><path class="cls-2" d="M668.52,278.7a.65.65,0,0,0,.41.21,3.3,3.3,0,0,1,2.68,1.23c.41.83,0,1.45,0,2.48,0,.2-.21.41-.21.61a1.36,1.36,0,0,1,1.24,0,3.63,3.63,0,0,1,1.64,1.86c.21.2.21.62.21,1,.21,0,.41,0,.41.41,1.65-.62,2.68,1.44,1.44,1.85a4.26,4.26,0,0,1-.61,3.09A2,2,0,0,1,677,293.3a5.1,5.1,0,0,1,6.61,2.89,4.31,4.31,0,0,1,.19.61s1.44.21,1.85,1a10.06,10.06,0,0,1,4.54,2.06c.61.41.2.41.82.62,1.24-.83,2.68-.83,4.74.2,1.23-.41,2.06-.2,2.26,1.24a2.68,2.68,0,0,1-1.23,3.3c-1.65.41-2.27-.62-2.68-1.86a1.92,1.92,0,0,1-2.27-.41c.62,1.44-1.44,4.33-3.09,2.89l-1.18-1.18c0,.82,1.85,1.85.62,3.3-1.24.61-2.06-.21-3.09-.83-.21-.2-2.48.83-3.3-1.85a4.78,4.78,0,0,1-2.68-3.3l-1.65-1.65c-1.85-1.85-4.32-3.09-5.76-5.56a5.57,5.57,0,0,1-2.27-2.06,12.05,12.05,0,0,1-2.89-3.5c-.61.2-3.09-3.5-3.5-4.12-1.44-2.06-3.71-3.5-4.74-6a21.06,21.06,0,0,1-4.34-6.11c-2.68-1-3.09-2.67-4.33-4.94a23.25,23.25,0,0,0-2.06-2.68,12.5,12.5,0,0,1-2.88-4.32s-6.18-8.86-7-10.72c-1-2.47-2.47-6-2.47-6.18-1.44-2.88-1.23-3.91-2.47-6.38-1.24-1.24-2.27-3.92-1.85-5.57l-2.48-6.79a4.3,4.3,0,0,1,2.27-5.36v-.21c-1.24-.82-1.85-2.06-1.65-4.32-1-1-1.23-1.86.21-2.68.82-1,1.85-1,3.09-.21,1.23,1.24.82,2.27-.21,3.09a2.19,2.19,0,0,1,.62,2.27c.41-.82,2.06-.82,3.09-.21,1.65-5.15,7-.2,3.5,2.68,1,.83.62,2.27,0,3.09a1.41,1.41,0,0,1,1.86,1.65c1.23.62,1.85,1.65,1,3.5,2.06.41,2.67,1.86,2.06,3.92.41.2.41.41.2,1,2.27.2,3.09,4.53,2.47,6a.93.93,0,0,1,.2,1.29,1,1,0,0,1-.61.36c.62.41,1.44.62,1,1.65a24.66,24.66,0,0,0,2.27,2.06,5.88,5.88,0,0,1,1.65,4.73c.2,0,.2.21.41.21a2.5,2.5,0,0,1,1.44,2.88h0c1.65-.61,2.68.83,3.91,1.65.83.62,1.24,1.45.42,2.06-.21.21.41.62-.42,1.45a3.57,3.57,0,0,1-.61,2.88c3.5.41,4.12,3.71,3.5,6.59.82.62,1.85,1.24,1.65,2.47.61.62,2.88,2.06,2.26,3.09,1.44-.2,2.68.62,2.47,2.06.62.42.83.62.83,1.24a1.51,1.51,0,0,1,1.28,1.71s0,.06,0,.09C668.52,278.29,668.72,278.5,668.52,278.7Z"/><path class="cls-2" d="M948.3,256v-.41a3.29,3.29,0,0,1,.21-3.09c.41-.83,1.24-.62,2.06-.83a.79.79,0,0,1,.62-.2,1.62,1.62,0,0,1-.41-1,3.89,3.89,0,0,1,1-2.27c.2-.2.61-.62.82-.62,0-.2,0-.41.21-.41-1.24-1.44.2-3.09,1.23-2.26a6.43,6.43,0,0,1,2.89-.62,2.61,2.61,0,0,1,1.44-1.86,5.12,5.12,0,0,1,0-7.23,5.34,5.34,0,0,1,.44-.39c.21,0-.21-1.23.21-2.06a13.24,13.24,0,0,1,0-4.94c.41-.83.41-.41.41-1a4.47,4.47,0,0,1-1.65-4.33c-.82-1-1-2.06.41-2.68.83-1,2.06-1,3.3-.2,1,1.23.41,2.47-.62,3.29a1.85,1.85,0,0,1,.68,2c.82-1,4.53-.41,3.71,1.65l-.62,1.86c.82-.42,1-2.68,2.88-1.86,1,.83.62,1.86.42,2.89-.21.41,1.64,2.06-.42,3.91a5.58,5.58,0,0,1-2.06,3.91l-.82,2.06c-.82,2.48-1,5.36-2.68,7.42a6,6,0,0,1-1.23,2.88,10.73,10.73,0,0,1-1.86,4.13c.41.41-2.06,4.12-2.47,4.73-1.24,2.27-1.86,5-3.71,6.8a21.64,21.64,0,0,1-3.71,6.39c-.2,2.88-1.23,3.91-3.09,6a20.14,20.14,0,0,1-1.65,2.89,12.61,12.61,0,0,1-2.67,4.53s-6,9.06-7.21,10.5a34.49,34.49,0,0,1-4.54,4.74c-2.06,2.48-3.09,2.68-4.94,4.74a7.72,7.72,0,0,1-4.33,4.12L915.37,314a4.71,4.71,0,0,1-6.18.21h0a4.43,4.43,0,0,1-3.29,3.29c-.62,1.24-1.24,1.86-2.48.83a2.43,2.43,0,0,1-1.64-2.89c.82-1.44,1.85-1.44,3.09-.82.2-.83.82-1.24,1.85-1.44-1-.21-1.65-1.86-1.44-2.89-5.36.62-3.09-6.38,1-4.32.41-1.24,1.85-1.45,2.88-1.24-.2,0-1-1.65.83-2.27,0-1.44.61-2.26,2.68-2.26-.21-2.27.82-3.3,2.67-3.51a1,1,0,0,1,1-.61c-.82-2.06,2.89-4.54,4.54-4.74a1,1,0,0,1,1.35-.44,1.09,1.09,0,0,1,.29.23c0-.82,0-1.65,1-1.44a16.88,16.88,0,0,0,1-3.09,6.48,6.48,0,0,1,3.71-3.3v-.41c.21-1.44.83-2.26,2.06-2.47h0c-1.23-1.24-.41-2.88,0-4.33.21-.82.83-1.85,1.86-1.23.2.2.41-.62,1.44-.21a3.49,3.49,0,0,1,2.88-.41c-1-3.3,1.86-5.36,4.74-6,0-1,.21-2.27,1.44-2.27.41-1,.83-3.71,2.06-3.5a1.92,1.92,0,0,1,.25-2.71,2,2,0,0,1,.75-.38c0-.62.21-1,.62-1a1.58,1.58,0,0,1,1-2,2,2,0,0,1,.26-.06.73.73,0,0,1,.61-.21Z"/><path class="cls-2" d="M886.91,315.78a.2.2,0,0,1-.19.21h0a1.55,1.55,0,0,1-1,.41.82.82,0,0,0,.62-.2c.2-.21.41-.21.61-.42Z"/><path class="cls-2" d="M823.26,328.14h0a.2.2,0,0,1,.2-.2h0a.2.2,0,0,0-.2.2Z"/><path class="cls-2" d="M824.29,323.2c.62,0,1,1.24,1.23,1.44a.93.93,0,0,1,.86-1h.14c-.2-.2.42-.62.62-.41.41-.62,1.44,0,1.65.82a1.64,1.64,0,0,1,.82-.41.64.64,0,0,1,.4-.81h0a1,1,0,0,1,1.64-.41c.21-.42.42-.62,1-.42,1-1,2.06,1.24.62,1.24a1.42,1.42,0,0,1-1.65.82.54.54,0,0,1-.44.62H831c0,.41-1.45.83-1.65.62-.41.41-1,0-1.24-.21-.2-.41-1,.21-.82.42.41.2.41.82.2.82a1.39,1.39,0,0,1-1.44.62c-.82-.21-1.23,1-2.06.41,0,.62-2.47,1.65-3.29,1.24a2.41,2.41,0,0,1-1.86,1,2,2,0,0,1-1.85.2,4.67,4.67,0,0,1-3.3,1,2,2,0,0,1-2.06.41,1.83,1.83,0,0,1-2.06.21,3,3,0,0,1-2.06.41,2.24,2.24,0,0,1-1.65,0c-.41.62-1.65.83-2.06.21a1.85,1.85,0,0,1-2.06.2,1.2,1.2,0,0,1-1.44,0c-.41.21-.62.21-.82,0a2.89,2.89,0,0,1-2.27,0c-.62.62-1.85.62-2.06-.2a4.81,4.81,0,0,1-2.88-.21c-.62.41-1.65-.2-2.06-.62a4.57,4.57,0,0,1-3.3-.82,4,4,0,0,1-2.42-1.4c-1.65.2-2.06-2.27-.21-1.86a1.31,1.31,0,0,1,1,1c.83,0,2.06.62,2.06,1.65,1-.62,1.65-.2,2.47.41v-.82c-2.06,0-1.23-1.85-.41-1.85-.62-1,.62-1.65,1.24-1.24,0-.41,1.44-1.24,1.85-.41.41,0,.62.2.62.41.21,0,1.24.21,1.44.82.83-1.23,4.12-.82,4.53-.41a1.13,1.13,0,0,1,.83-.41c.2-.21.41-.21.82-.21a1.7,1.7,0,0,1,1.24.83c.41-.62,1.85-.21,2.26.41-.2-.21.62-.62.83-.41.82-1.24,2.06.41,2.06,1.23a1.84,1.84,0,0,1,1-.2c0-.41.2-.62.62-.83a.87.87,0,0,1,.92-.82.83.83,0,0,1,.52.21c.41-.21.62-.21,1-.42-1,0-1.24-.41-1.24-1,4.74-.41,9.69-.61,14.22-1.85Z"/><path class="cls-2" d="M925.23,86.7c-.2-.62.62-1.65.83-1.85a1,1,0,0,1-1.38-.29.75.75,0,0,1-.07-.12c-.2.2-.61-.21-.61-.62-.83-.21-.62-1.24,0-1.86-.21,0-.42-.2-.62-.61a.46.46,0,0,1-.61.22.52.52,0,0,1-.22-.22c-.2.2-1.23-.21-1.23-1.24-.41,0-.62-.21-.62-.82-1.24-.42.41-2.48.82-1a1.38,1.38,0,0,1,1.45,1,1.49,1.49,0,0,1,.82.41c.41,0,1.24,1,1.24,1.23a.81.81,0,0,1,.3,1.11,1.13,1.13,0,0,1-.1.13c-.2.41.62,1,.83.62,0-.41.61-.62.61-.41a1.3,1.3,0,0,1,1,1c.21.82,1.45.82,1.24,1.85.62-.41,2.47,1.44,2.27,2.47.82.21,1.44.41,1.64,1.24a1.67,1.67,0,0,1,1,1.65,4.25,4.25,0,0,1,2.27,2.67c.62.21,1.44,1.24,1.24,1.65a1.81,1.81,0,0,1,.82,1.86,3.24,3.24,0,0,1,1.24,1.85,1.2,1.2,0,0,1,.61,1.44c.83,0,1.45,1.24,1.24,1.86a3.09,3.09,0,0,1,1,1.85c.41.21.41.82.41,1.24.41.2.41.41.21.82a2.83,2.83,0,0,1,1,2.06c.62.21,1.23,1.44.62,2.06a3.81,3.81,0,0,1,.82,2.68,1.59,1.59,0,0,1,.21,2.06,3.38,3.38,0,0,1,.61,3.3c.42.82,0,1.85-.41,2.88.83,1.65-1.23,2.88-1.44.82-.21-.41,0-.82.41-1.23a6.22,6.22,0,0,0,.21-4.95l-.83.21c.83,1.85-1.23,2.06-1.44,1.24-.62,1-1.85,0-1.65-.83-.41.41-1.85-.62-1.23-1.44,0-.41,0-.62.2-.82-.2-.21-.41-1.24.21-1.45-1.65-.41-2.47-3.5-2.06-4.12-.41,0-.62-.2-.82-.62-.21,0-.42-.41-.42-.61a1.26,1.26,0,0,1,.21-1.45,1.61,1.61,0,0,1-.44-2.22l0,0c-.21.2-.83-.41-.83-.62-1.44-.41-.41-2.06.42-2.47-.42-.21-.62-.41-.62-.62a1.62,1.62,0,0,1-1-.41c-.62.2-1.44-.41-1.24-1a2.66,2.66,0,0,0-.62-.83c.21.83,0,1.45-.61,1.45-2.06-4.12-4.12-8.66-7-12.16Z"/><path class="cls-2" d="M718.19,23.05c-.61.2-1.44-.83-1.64-1a1.3,1.3,0,0,1-.62,1.44c.2,0-.21.62-.42.62-.41.61-1.44.41-2.06-.21,0,.21-.2.41-.61.62,0,0,.61.41,0,.82a1.35,1.35,0,0,1-1.45,1.24c.21.41-.2.62-.61.62-.62,1.23-2.48-.42-1.24-1,.21-.62.62-1.24,1.24-1.24a1,1,0,0,1,.41-.82c0-.42,1-1.24,1.23-1.24.42-.41,1.24-.41,1.24-.21.41.21,1-.41.62-.61-.41,0-.41-.62-.21-.83a1.11,1.11,0,0,1,1-1c.83,0,.83-1.23,1.86-1-.21-.62,1.65-2.47,2.68-2.26.2-.62.41-1.45,1.23-1.65a1.88,1.88,0,0,1,1.65-.83,4.26,4.26,0,0,1,2.88-2.06A1.94,1.94,0,0,1,727,11.22a2.59,2.59,0,0,1,1.86-.83,2.8,2.8,0,0,1,1.85-1,1.48,1.48,0,0,1,1.65-.62c0-.82,1.23-1.23,1.85-1,0-.41,1.24-1,1.86-1a2.18,2.18,0,0,1,1.23-.41c.21-.2.41-.2.83-.2a2.63,2.63,0,0,1,2.06-.83c.41-.62,1.64-1,2.06-.41a3,3,0,0,1,2.67-.82,2.24,2.24,0,0,1,2.27-.21,3.38,3.38,0,0,1,3.3-.21,3,3,0,0,1,2.88.42c1.65-.83,2.68,1.23.82,1.44A.93.93,0,0,1,753,5.13c-.83.41-2.27.2-2.47-.83a1.93,1.93,0,0,1-2.48.41v.83c2.06-.62,2.06,1.23,1.24,1.44a.93.93,0,0,1-.82,1.65c.2.41-.83,1.85-1.65,1-.41.21-.41.21-.62-.21a1.29,1.29,0,0,1-1.65-.2c-.41,1.64-3.5,2.26-4.12,2.06,0,.2-.2.41-.62.61-.2.21-.41.42-.61.42a1.73,1.73,0,0,1-1.45-.21c-.2.62-1.64.83-2.26.21.2.2-.41.82-.83.82-.2,1.44-1.85.41-2.26-.62-.21.42-.41.62-.83.62,0,.41,0,.83-.41,1a.87.87,0,0,1-1,1.24c-.41.2-.62.2-.82.41.82,0,1.44.21,1.44.82-4.12,1.86-8.86,3.92-12.57,6.6Z"/><path class="cls-2" d="M665,103.39c-.41.62-1.65.2-2.06.2.21.21.83.83.21,1.45.41,0,.2.82,0,.82.2.82-1,1.24-1.65.82a1.74,1.74,0,0,1-.21,1,.44.44,0,0,1,.47.39.46.46,0,0,1,0,.23,1.12,1.12,0,0,1-.37,1.54l-.25.11c.2.41.2.83-.21,1,0,1.44-2.47.83-1.65-.2a2.12,2.12,0,0,1,.42-1.86c-.21-.2-.21-.41,0-.82-.42-.21.2-1.65.41-1.65,0-.62.82-1,1-.83.41,0,.41-1,0-1-.21.21-.62-.2-.62-.41-.21-.2,0-1,.41-1.44.62-.41,0-1.44.83-1.85-.42-.42.2-2.89,1.23-3.3a1.91,1.91,0,0,1,.21-2.06,1.84,1.84,0,0,1,1-1.65,4.36,4.36,0,0,1,1-3.29c-.21-.62.62-1.86,1-1.86a2.12,2.12,0,0,1,1-1.65,5,5,0,0,1,1-2.06c0-.61.62-1,1-1.23-.41-.62.21-1.65,1-1.86-.21-.2.41-1.64,1-1.85a1.73,1.73,0,0,1,1-1c-.21-.41,0-.62.41-.62A2.66,2.66,0,0,1,674,76.61a1.24,1.24,0,0,1,1.45-1.44,3,3,0,0,1,1.85-2.06,1.81,1.81,0,0,1,1.85-1.24,3.26,3.26,0,0,1,2.48-2.06,3.66,3.66,0,0,1,2.67-1.24c1-1.44,3.09-.41,1.45,1a1.15,1.15,0,0,1-1.24.21,1.9,1.9,0,0,1-2.47.62,1.77,1.77,0,0,1-1.86,1.44l.42.62c1.44-1.44,2.47.2,1.85.82,1.24,0,.82,1.44.21,1.86.41.2.2,1.85-.83,1.64-.2.42-.41.42-.82.21a1,1,0,0,1-1.22.7.83.83,0,0,1-.22-.08c.61,1.44-1.65,3.71-2.48,3.91a.63.63,0,0,1,0,.83,1,1,0,0,1-.41.82,1.28,1.28,0,0,1-1.44.41c.21.83-.82,1.65-1.65,1.65.21,0,0,.82-.2.82.41,1.45-1.45,1.65-2.27,1a1.05,1.05,0,0,1-.41.83c.2.41.41.62.2,1a.93.93,0,0,1-.41,1.65c0,.2-.2.61-.2.82.61-.62,1.23-.62,1.64-.21-2.67,3.92-5.56,8-7.21,12.16Z"/><path class="cls-2" d="M809.45,15.84a4.73,4.73,0,0,1-1.64-.42c-.21,1-2.48,1-3.09.21-1.65.41-2.06.41-2.68-1.24.2,2.27-3.5,1.65-4.33-1a.72.72,0,0,1-.41-.2,2.38,2.38,0,0,1-1,1.44c1.24.82.41,3.09-1,2.27-1.65.41-1.85-1-1.44-1.86-.41-.2-.41-.62-.83-.62a4.07,4.07,0,0,1-1.44,3.3,2.31,2.31,0,0,1-3.26-.18l0,0c-.62-.82-.42-1.44-.42-2.47a2.89,2.89,0,0,1-1.23-.41c-.41.62-4.12,2.27-5-2.47-1.23,1-.82.82-.41,2.88.41.83-.2,1.44-1,1.65A3.18,3.18,0,0,1,777,14.84a.75.75,0,0,1-.62-.21,3.15,3.15,0,0,1-3.92,2.06c.42,2.06-1.44,6-3.91,3.91-1.85-1.64-.21-3.09-.82-4.73-1.65.2-2.89-.83-2.27-2.06-2.06.41-2.89-1.45-1.86-2.48-1.64-1.85-.41-4.53,2.89-3.29,2.88-.42,4.12,2.67,3.3,5.15,1-1.86,2.26-3.5,3.29-5.36.21-.41.62-1.24,0-1.65-.82-.82-1.85-2.06-1.44-3.29,0-.62,0-.62.82-.83,1.86-.2,3.92-.62,5.77.21,2.89-1.65,6-.62,9.07-1.24,2.47-.41,2.06,1.86,2.06,3.5,0,.42,0,.42.41.62,1.85.83,2.06-.82,2.06-2.26,0-2.27,1.23-2.68,2.88-2.27.62-1.44,5.77,0,6.8.62,3.09-1,6,.62,9.06.62,1.86,0,2.27,1.64,1.45,2.88a2.87,2.87,0,0,1,1,1.85c.41-1.85,1-3.7,5.15-3.7l3.5.41s1.85-.62,1,1.65c-.62,1.85,0,5.35,2.47,4.74-.2-.21,2.06-3.51,3.92-2.07a3.71,3.71,0,0,1,3.5.42c2.06.61,2.68.82,1.65,2.06,1.64,1.44,1.44,3.29,0,5.35,1.64,1.65.82,3.3-.42,3.92.21.62-.41,1.85-2.06,1.44-.41,1-2.67,1-2.06-.82a1.79,1.79,0,0,1,2.06-.83,2.36,2.36,0,0,1,.21-1.65,2.86,2.86,0,0,1-3.09.42c.21,2.47-3.09,2.88-3.71,1.44-1.65.62-2.88-.21-2.68-2.06a1.17,1.17,0,0,1-1.44-.82,1.3,1.3,0,0,1,0-.62,3.94,3.94,0,0,1-3.5-1.45c0,.62-2.47,1.24-2.88.21,0-.21-.21-.21-.42-.21,0,.62.21,1.24-.41,1.24.21,1-3.91,2.88-4.33.21Z"/><path class="cls-2" d="M792.77,344.42a1.85,1.85,0,0,0-1.44.62c-.42-1.24-2.68-1-3.09-.21-1.86-.41-2.06-.62-2.89,1,.21-2.27-3.5-1.44-4.32,1l-.42.41a3.25,3.25,0,0,0-.82-1.44c1-.82.41-3.3-1-2.27-1.85-.41-1.85.83-1.44,1.86-.62.2-.62.62-1,.62a4.07,4.07,0,0,0-1.44-3.3,2.23,2.23,0,0,0-3.09,0,3.72,3.72,0,0,0-.62,2.47c-.41.21-.83.21-1.24.62-.2-.62-4.12-2.47-4.94,2.27-1.24-1-.83-.62-.41-2.68a1.09,1.09,0,0,0-.37-1.5,1.15,1.15,0,0,0-.63-.15,2.92,2.92,0,0,0-3.29,1.85h-.62a3.22,3.22,0,0,0-3.91-1.85c.41-2.27-1.24-6-3.92-3.91-1.65,1.44-.2,2.88-.82,4.53-1.65-.21-2.68,1-2.27,2.06-1.85-.41-2.88,1.44-1.85,2.47-1.65,1.85-.41,4.74,2.88,3.5,2.89.21,4.12-2.88,3.3-5.15a45.28,45.28,0,0,1,3.29,5.36c.21.41.62,1.24,0,1.44a4.57,4.57,0,0,0-1.44,3.5c0,.42.21.62.83.62,2.06.21,3.91.83,6,0,2.89,1.65,6,.41,8.86,1,2.68.62,2.06-1.85,2.06-3.5,0-.41,0-.41.41-.41,2.06-1,2.06.82,2.06,2.26.21,2.27,1.24,2.68,2.89,2.06.61,1.65,5.76.21,6.79-.61,3.3,1.23,6-.62,9.07-.42,1.85,0,2.26-1.64,1.65-3.09.82-.41.61-1,.82-1.64.41,1.64,1,3.7,5.15,3.5l3.5-.21s2.06.41,1.24-1.85c-.62-1.86-.21-5.15,2.26-4.54,0,.21,2.06,3.3,3.92,2.07,1,.41,2.06.2,3.71-.42,1.85-.61,2.47-.82,1.44-2.06,1.85-1.44,1.44-3.29,0-5.35,1.65-1.86.82-3.51-.21-3.92a1.55,1.55,0,0,0-1.57-1.53,1.63,1.63,0,0,0-.49.09c-.41-1-2.68-1-2.26.82a1.79,1.79,0,0,0,2.06.83,3.7,3.7,0,0,0,.2,1.44,3.24,3.24,0,0,0-3.09-.21c.41-2.67-3.09-3.09-3.71-1.44-1.64-.62-2.88.21-2.47,2.06-1.23-.2-1.85.41-1.65,1.44a4,4,0,0,0-3.5,1.45c.21-.83-2.26-1.24-2.68-.21-.2,0-.41,0-.41.21-.2-.62,0-1.24-.41-1.24,0-1.24-4.12-2.88-4.53-.41Z"/><path class="cls-2" d="M785.15,350.6a.2.2,0,0,0,.2.2h0Z"/><path class="cls-2" d="M660.52,256.45c-2.27-3.91-10.3-10.3-9.06-15.45-1.45-1.44-2.06-6-2.48-8.65a9.93,9.93,0,0,1,.42-6c1.23-2.06-.42-3.51,0-5.77l1.85-7.83-.41-4.33L650,204.3c-.41-1.65.62-2.47-.61-3.91-1.24-1.65,2.67-4.33-.62-5.56-2.68-.62-.21-2.27-1.24-3.71-1.23-1.65,0-3.71-.62-5.36-.2-1-1.44-1.85-1.23-2.88.2-.83.41-.41,0-1.24-.83-2.26-1.65-4.32-1.24-6.59.21-.82.21-.62.62-1,1.65-1.85.82-5.15,3.71-6.18.62-.21.62-.21.62-.41.41-3.3,4.12-4.12,3.91,1,0,.2,0,0,.21.2,2.06,1.65,1.44,5.36.61,7.21-.82,1.45-1.23.83-.82,2.06.21.62.41.21,1,.62,1.65,1.24,1.44,3.09.82,4.74a7.05,7.05,0,0,1-.41,2.27,7.05,7.05,0,0,1,0,4.12,4.26,4.26,0,0,1,1.44,2.47c2.48,2.68,1.65,6.8,1.65,6.8a3.39,3.39,0,0,1,.56,4.76,1.19,1.19,0,0,1-.15.18c1.24,2.06,2.68,8.65,3.3,11.33.82,3.3,2.68,7.21,3.91,10.3-.2.21,2.48,7.42,2.48,7.42,0,1.44-1,1.85-1.65,2.26-.83.42-1.24.21-1.65-1-.62-1-.41-2.88-1.85-5.35a3.19,3.19,0,0,1-1.24.41c-1,.41-.62.41-.41,1.24,3.5,12.15,10.51,22.86,15.86,34.19,1.44,2.68,2.27,2.06,3.92,4.12,11.53,14.22,7,12.36,24.51,23.49a24.12,24.12,0,0,1,2.47,1.65c1.24,1.23,2.06.82,3.71,1.44a56.36,56.36,0,0,1,9.48,6c13.39,9.69,16.07,10.1,29.66,15.45a30.17,30.17,0,0,0,2.89,1c.82.21.82.21.2.83a5.31,5.31,0,0,1-2.26,1.65c-1.45.61-2.68-.21-3.09-.21a3.15,3.15,0,0,1-3.71-.82,5.48,5.48,0,0,1-4.53-1.24c-.21-.21-1.24.41-3.51-.21a2,2,0,0,1,.62,2.48,4.52,4.52,0,0,1,4.12,1.23c0,.21,2.47-1.85,4.74,1,0,0,4.12-.2,6.59,2.68a3.56,3.56,0,0,1,2.27,1.65,6.18,6.18,0,0,1,3.91.41h2.47c1.65-.41,3.51-.41,4.54,1.44.2.62,0,.62.41,1,1.24.62.82.21,2.27-.41,2.06-.82,5.76-.82,7,1.44.21.21,0,.21.41.21,5,.41,3.71,4.12.41,4.12-.41,0-.41-.21-.61.41-1.24,2.88-4.54,1.44-6.6,2.88-.41.42-.2.42-1,.42-2.26.2-4.32-.83-6.38-2.06-.83-.42-.42,0-1.24,0-1.24,0-1.65-1.24-2.68-1.65-1.65-.83-3.91.2-5.35-1.24-1.24-1.23-3.3,1-3.51-1.85-.82-3.3-3.91.2-5.35-1.24-1.24-1.23-2.47-.2-3.92-1a53.24,53.24,0,0,0-7.41-4.32A1.72,1.72,0,0,0,731,325a18.81,18.81,0,0,1-9.07-4.53c-1-.82-2.26-1-2.68-2.26-.2-1-.41-1.45.21-2.06,1.24-.83,2.27-.21,3.3.82.41.62.2-1,0-1.24a2.2,2.2,0,0,0-1.24-1.44c-.41-.2-1.24.41-2.27.62h-2.71c-.62.21-.62.41-1.45-.21a19.47,19.47,0,0,1-.62-3.29c-.2-.83-.41-.62-1-1a43.61,43.61,0,0,1-5.35-3.71c-5-4.53-10.92-7.42-16.28-11.74-7.82-6.39-14.42-13-20-21.84A107.77,107.77,0,0,1,660.52,256.45Z"/><path class="cls-2" d="M957.37,103c2.06,4.12,9.89,10.92,8.24,15.86,1.24,1.65,1.65,6.18,2.06,8.86.21,1.85.21,4.12-.82,5.77-1.24,2.26.2,3.7-.42,6l-2.06,7.62v4.53l.62,3.92c.41,1.65-.62,2.68.41,4.12,1,1.65-2.88,4.12.21,5.56,2.68.62.21,2.27,1,3.71,1.24,1.65-.21,3.71.41,5.36.21,1,1.44,1.85,1,3.09-.2.82-.41.2,0,1.23a14.23,14.23,0,0,1,.83,6.59c-.21.83-.21.62-.62,1-1.86,1.65-1.24,5.15-4.12,6-.62,0-.62,0-.62.41-.62,3.09-4.33,3.71-3.91-1.24,0-.2,0-.2-.21-.41-1.86-1.65-1-5.15,0-7.21.82-1.23,1-.62.62-2.06,0-.41-.21-.2-.83-.62-1.44-1.23-1.23-3.09-.41-4.73a7.64,7.64,0,0,1,.41-2.27,7.15,7.15,0,0,1,.21-4.12,4,4,0,0,1-1.24-2.47c-2.47-2.89-1.23-7-1.44-7a3.29,3.29,0,0,1-.09-4.65l.09-.09c-1.24-2.06-2.27-8.85-2.68-11.53-.62-3.3-2.26-7.42-3.29-10.51.2-.2-2.06-7.62-2.06-7.62,0-1.44,1-1.65,1.85-2.06.82-.62,1.24-.21,1.65,1,.41,1,.2,2.88,1.44,5.36a3,3,0,0,0,1.24-.42c1-.2.61-.2.41-1-2.68-12.36-9.07-23.48-14-35-1-2.68-2.06-2.26-3.5-4.32-10.92-15-6.39-12.78-23.28-24.93a25.1,25.1,0,0,1-2.27-1.85c-1.23-1-2.06-.83-3.5-1.65a59.41,59.41,0,0,1-9.48-6.39C886.66,44.52,884,43.9,870.8,37.72c-1-.41-1.86-.82-2.89-1.23-.82-.21-.82,0-.2-.83a6.06,6.06,0,0,1,2.47-1.44c1.23-.62,2.47.41,2.88.41a3.26,3.26,0,0,1,3.71,1c2.27,0,3.71.41,4.33,1.44.41.21,1.44-.41,3.7.42-.82-1-1-1.65-.41-2.68a4.26,4.26,0,0,1-4.12-1.24c-.2-.2-2.68,1.65-4.74-1.23,0-.21-4.32,0-6.38-3.09a4.1,4.1,0,0,1-2.27-1.86,6.32,6.32,0,0,1-3.91-.62c-.83-.2-1.65,0-2.27-.2-1.85.41-3.71.2-4.53-1.65-.21-.62,0-.62-.41-1-1.24-.62-.83-.21-2.27.41-2.06.41-5.77.21-7-1.85,0-.21,0-.21-.21-.21-4.94-.82-3.5-4.32-.21-4.12.21,0,.21,0,.42-.41,1.64-2.88,4.73-1.44,6.79-2.68.62-.41.42-.41,1-.41,2.48,0,4.33,1.24,6.39,2.47.83.41.41.21,1.24.21,1,0,1.65,1.23,2.47,1.85,1.65.83,3.91-.2,5.36,1.44,1,1.24,3.29-.82,3.29,1.86.62,3.5,3.92.2,5.36,1.65,1.23,1.44,2.47.41,3.91,1.44a51.65,51.65,0,0,0,7,4.53,4.49,4.49,0,0,0,1.44.62c3.5.62,6.38,2.68,8.86,4.94,1,.83,2.26,1.24,2.47,2.47.41.83.41,1.24-.41,1.86-1,1-2.06.2-2.89-.83-.62-.61-.41,1-.41,1.24a2.18,2.18,0,0,0,1.24,1.44c.61.21,1.44-.41,2.47-.41h2.47c.82,0,.82-.21,1.44.21a24.43,24.43,0,0,1,.62,3.5c0,.82.21.62.82,1a31.53,31.53,0,0,1,5.16,4.12c4.73,4.74,10.5,8,15.65,12.57A91.7,91.7,0,0,1,947,85.69c2.47,2.89,8.65,13.39,10.3,17.31Z"/><path class="cls-2" d="M670.4,59.72c2.68-3.51,5.77-13.4,10.92-14,1-1.86,4.94-4.12,7.21-5.57a9.42,9.42,0,0,1,5.77-1.64c2.47.41,3.09-1.65,5.35-2.06l8-1.24,3.91-1.85,3.5-2.27c1.45-.82,2.68-.41,3.51-1.85,1-1.86,4.94.82,4.94-2.68-.41-2.68,2.06-1,2.88-2.47,1-1.86,3.51-1.24,5-2.48.82-.61,1-2.06,2.26-2.26.83-.21.42.2,1-.41,1.86-1.65,3.51-3.09,5.77-3.51.83-.2.62-.2,1.24.21,2.26.82,5.15-1.24,7,1.24.41.41.41.41.62.41,3.3-.83,5.36,2.26.62,3.91-.21.21-.21,0-.21.41-.82,2.27-4.53,3.3-6.59,3.09-1.65-.41-1.24-.82-2.27,0-.41.42,0,.62-.2,1.24-.62,1.85-2.27,2.47-4.12,2.27a7.14,7.14,0,0,1-2.27.61,7.37,7.37,0,0,1-3.71,1.45,5,5,0,0,1-1.85,2.26c-1.65,3.3-5.77,3.92-5.77,4.12-1.44,3.3-4.32,1.86-4.32,2.06-1.45,1.86-7.22,5.56-9.48,7.21a89.51,89.51,0,0,0-8.24,7.21c-.21,0-6,4.95-6,4.95-1.44.61-2.06-.21-2.67-.62-.83-.62-.62-1,.2-2.06.83-.83,2.47-1.44,4.53-3.5-.41-.42-.61-.62-1-1-.61-.83-.41-.42-1.23,0C684.61,58.48,677,69,668.52,78.05c-1.86,2.27-1.24,2.88-2.27,5.15-9.27,15.86-9.07,10.92-13.19,31.31a11.76,11.76,0,0,1-.82,2.89c-.41,1.65.21,2.26,0,3.91a49.64,49.64,0,0,1-2.06,11.13c-4.12,15.86-3.5,18.74-3.71,33.16a16,16,0,0,0,.21,3.09c0,.83,0,.83-.83.42a9.89,9.89,0,0,1-2.47-1.45c-.82-1-.62-2.67-.82-2.88a3.42,3.42,0,0,1-.41-3.91c-1-1.86-1-3.51-.42-4.54,0-.41-1-1-1.23-3.5-.62,1.24-1,1.65-2.27,1.44a4.11,4.11,0,0,1,.41,4.33c0,.21,2.68,1.85.83,4.74,0,.2,1.85,3.91,0,7.21a6.38,6.38,0,0,1-.62,2.68,8.27,8.27,0,0,1,.82,3.91c.21.82.62,1.44.83,2.27,1,1.44,1.65,3.09.41,4.73-.41.42-.62.21-.82.83,0,1.44,0,.62,1.23,1.85,1.44,1.65,2.68,5.15,1.24,7.21-.21.21-.21,0-.21.21,1.44,4.94-2.47,4.94-3.5,2.06-.21-.41-.21-.41-.62-.41-3.29-.21-3.09-3.71-5.15-5.15-.62-.21-.62,0-.82-.83-1-2.06-.83-4.32-.41-6.59,0-1,0-.41-.42-1.24-.41-1,.62-2.06.62-3.09.21-1.85-1.65-3.5-.82-5.56.82-1.44-2.06-2.68.41-3.71,2.88-2.06-1.44-3.7-.62-5.56.62-1.65-.82-2.47-.41-4.12.41-2.47,1.24-5.77,1.24-8.24v-1.65c-.83-3.5-.21-6.8.82-10.09.41-1.24.21-2.47,1.24-3.3.61-.62,1-.82,1.85-.41,1.24.62,1,1.85.41,3.09-.2.82,1,0,1.24-.21a2.77,2.77,0,0,0,1-1.64c0-.62-1-1.24-1.44-2.06s-.62-1.65-1-2.48c-.42-.61-.62-.41-.42-1.23a25.29,25.29,0,0,1,2.89-2.06c.62-.21.41-.41.62-1a57.87,57.87,0,0,1,1.44-6.39c2.47-6.38,3.09-13,5.15-19.57,3.29-9.48,7-18.13,13-26.37,1.85-3.71,8.65-13.59,11.74-16.68Z"/><path class="cls-2" d="M941.09,256.45c2.27-3.91,10.3-10.71,8.86-15.65,1.24-1.45,1.86-6,2.27-8.66a9.66,9.66,0,0,0-.62-6c-1.24-2.06.21-3.5-.21-5.77l-2.06-7.83.21-4.53.82-3.91c.42-1.65-.61-2.68.42-4.12,1.23-1.65-2.68-4.12.61-5.36,2.68-.62,0-2.47,1-3.71,1.24-1.65,0-3.71.42-5.56.41-1,1.64-1.65,1.23-2.88,0-.83-.41-.42,0-1.24.83-2.27,1.44-4.33,1-6.59-.2-.83,0-.62-.62-1-1.64-1.86-.82-5.15-3.91-6.18-.62,0-.41,0-.62-.41-.41-3.09-4.12-3.92-3.91,1.23,0,.21,0,0-.21.21-1.85,1.65-1.23,5.35-.2,7.21.82,1.44,1,.82.61,2.06-.2.62-.41.41-.82.62-1.65,1.44-1.44,3.09-.62,4.73a11,11,0,0,0,.41,2.48,6.37,6.37,0,0,0,0,3.91,4,4,0,0,0-1.23,2.47c-2.47,2.89-1.65,7-1.65,7-2.47,2.67-.21,4.74-.21,4.74-1.23,2-2.47,8.85-3.09,11.53-.82,3.3-2.47,7.21-3.5,10.3,0,.41-2.47,7.42-2.47,7.42,0,1.65,1.24,1.85,1.85,2.26.83.62,1.24.42,1.65-.82a28.21,28.21,0,0,1,1.65-5.56,2.89,2.89,0,0,0,1.24.41c1,.41.82.41.41,1.24-3.09,12.36-9.68,23.28-15,34.61-1,2.67-2.06,2.26-3.71,4.12-11.12,14.62-6.59,12.56-23.9,24.3a9.37,9.37,0,0,0-2.26,1.65c-1.24,1.24-2.27.83-3.71,1.65a47,47,0,0,0-9.48,6.18c-13,9.89-15.65,10.51-29,16.07-1,.41-1.86.82-2.89,1.24-.82.2-.82,0-.2.82a9.37,9.37,0,0,0,2.26,1.65c1.44.41,2.68-.41,3.09-.41a3.59,3.59,0,0,0,3.71-1c2.27.2,3.71-.42,4.53-1.45a4.89,4.89,0,0,0,3.51-.2,2.34,2.34,0,0,0-.62,2.68,4.52,4.52,0,0,0-4.12,1.23c0,.21-2.48-1.65-4.74,1,0,.21-4.12,0-6.39,2.89a4.63,4.63,0,0,0-2.26,1.64,8.32,8.32,0,0,0-3.92.83,9.29,9.29,0,0,0-2.47,0c-1.85-.41-3.5-.41-4.53,1.44-.21.62,0,.82-.41,1-1.24.62-.62.21-2.27-.41-2.06-.62-5.77-.41-7,1.65,0,.2,0,.2-.21.2-4.94.62-3.71,4.33-.41,4.12.41,0,.2,0,.62.41,1.44,2.89,4.53,1.45,6.59,2.89.62.41.41.41,1,.41,2.47,0,4.32-1,6.38-2.27.83-.41.42-.2,1.24-.2,1.24.2,1.65-1.24,2.68-1.65,1.65-.82,3.91.21,5.35-1.44,1-1.24,3.3,1,3.3-1.86.82-3.5,3.91.21,5.36-1.44,1.23-1.23,2.47-.2,3.91-1.23a65.85,65.85,0,0,1,7.21-4.33,2,2,0,0,1,1.44-.41,19.63,19.63,0,0,0,9-4.89c1-.82,2.26-1,2.68-2.26.2-.83.2-1.44-.42-1.86-1-1-2.06-.41-3.09.62-.61.83-.2-1-.2-1.23a3.93,3.93,0,0,1,1.23-1.45c.42-.2,1.24.62,2.27.62h2.68c.62.21.82.41,1.44-.2a16.78,16.78,0,0,0,.62-3.51c0-.61.2-.61.82-.82a51.36,51.36,0,0,0,5.36-3.91c4.94-4.54,10.71-7.83,15.86-12.37,7.62-6.59,14.22-13.18,19.57-22,2.68-3.09,9.07-13.18,10.71-17.1Z"/><path class="cls-3" d="M928.94,172c0,76.84-58.09,139.26-129.79,139.26-71.48,0-129.57-62.42-129.57-139.26S727.67,32.72,799.15,32.72C870.85,32.72,928.94,95.14,928.94,172Zm-70,31.52-1-1.86-1-1.85-1-1.85-.83-1.65-1-1.86-1-1.85-1-1.85-1-1.86-.2-.41h-1.86l-.2-.21-.21-.2H847.2l-2.27,1.23-.41.21h-1.44l-.62-.21-.21-.2-.41-.62-.2-.21h-.21l-.82.62V177l.2-.2H841v-.21h0l.2.21v-.21h0l.21-.2h0v-.21l.21-.21-.21-.2v-.21l-.41-.2v-.21l-.21-.21v-.41h.41v-.41h0l.21-.21h0v-.2h.21v-.41h0V173h-.42l-.2.21h-.5v.2l-.41.41-.21.21-.61.41h-.21l-.41.41-.21.21-.41.21-.21.2-.2.41-.21.21-.2.21h0l-.21.2v.21h-.21l-.2.2-.62.21-.62.21-.2.2v.21l-.21.2v.21l-.41.21-.41.2-.21.21h-.21v-.21h-.41v.21h-8l.2-.21v-.2h0V178l.21-.2v-.21h0l-.21-.2v-.21l-.2-.21-.62-.61-.21-.21.21-.41v-.41l-.41-.42h0v-.61h0v-.21h-.62l-.21-.41H822l-.2-.21-.42-.2h-.82V173l-1.24-.21h-3.91l.21-.2.61-.62.21-.41.21-.21v-.2h.2l.21-.21h.2v-.41l.42-.41h.2v-1.45h0l-.41-.41V168l-.41-.21-.21-.21-.62-1-.2-.41-.21-.2-.2-.21v-.21H815l-.21-.2-.2-.21-.42-.41v-1.24l-.2-.2h-.41v-.21l-.21-.2h-.21l-.62-.42-.2-.2v-.62l-.21-.21-.2-.41-.21-.2v-1l-.41-.42v-.2l-.21-.41-.41-.21-.41-.21-.21-.2h0l-.2-.62v-.21l.2.21h.21l.41-.21.21-.41-.21-.41-.21-.21h-.41l-.41-.2-.21-.21-1.23-1.44-.41-.21v-.2l.41-.21.2-.21v-.2h0v-.41l-.2-.62-.21-.21h.21l.41.21H809l.41-.21.21-.2h.86l.21-.21v-.21l-.21-.2V151l-.61-1-.21-.21.21-.21v-.2l.2-1,.21-.62h0v-.21l.41-.2.21-.21v-.2l.2-.21h.21l.62-.41.61-.62.83-.41.21-.41.41-.21h.82l.41-.21.42-.2.2-.21.21-.41.2-.41v-.62l-.2-.62v-.2l-.21-.83h0l-.41-.62-.21-.2v-.62l.21-.21.21-.41.61-1.23.21-.42,1-1.23.21-.41.2-.21v-2.27l.21-.61h.2v-.62l.21-.21h0v-1l-.21-.2v-.21h0l.2-.28h.41v-.2h.59l.21-.21h.2v-.2h1l.21-.21h0V129h0l.41-.2.21-.21.2-.2h.41v-.21h.21V128h.21l.2-.2.21-.21h0l.2-.62v-.2h.42v-.21h.82l.21-.2.61-.42.42-.2.2-.21h.21l.2-.41v-.21h0l.21.21h.21v-.21h.2l.21-.2.41-.41.41-.21h0l.83-.21h.2v-.2h.21l.2.2H830v-.2l.2.2h.32V124h0l.2-.21.21-.2h0v.2l.41-.2h.18l.2.2h0l.21-.2v-.21h.21l.2-.2h.83v.2h.35v-.2h.41V123h0v-.21h.21l.2-.2.21.2.2.21.21-.21v-.2h.21l.2.2h0l.21.21v-.21l.2-.2H836l.62.2.2-.2v-.21l.21.21.21.2v-.2l.2-.21v-.2l.41-.21v-.21l.21-.2v-.21h.21l.2-.2-.2-.21v-.21h.2l.41-.2h1v-.21l.21-.2h.21v.2h0v.21l.41.41.2-.21v-.41h.42v.41h.2l.41-.41h.62l.21.21h.2l.21-.21h0l.21.21h0v.82l.2.21.41.41h.21l.21.21v.2l.2-.2.21-.42.2-.2h.5l.2.2V122h0l.21.21h0l.2.2h.21l.18-.41.2-.21.21-.2v-.21l-.41-.62-.21-.2-.21-.21-.2-.41-1-.41-.21-.21v-.41l-.2-.41v-.21l-.21-.41-.41-.41-.41-.21-.21-.2h-.41l-.21.2-.41.41h-1v-.2l-1.24-.62h-.61l.41-.62.74-1.23.62-1.24.82-1.24.83-1,.62-1.23.82-1.24.82-1.24.62-1.23.41-.41h-.2l-.21-.21v-.21l-.2-.41h0l-.21.21h0l-.21.2h-.2v-.2h0v-.21h-.62l-.21-.2v-.42l-.2-.2h-.41l-.21.2H843l-.2-.2h0v-.21h.2l.21-.2-.21-.21h-.41l-.2.21H842v-.21h0v-.21h-.2l-.21-.2h-.2l-.21-.21h-.21V103l-.2.2h0v.21h0l-.21.2h-.2l-.21-.2h0v-.21h0V103l-.41-.21h0v-.41h-.18l-.2-.21h-.42l-.38-.17-.41-.62-.21-.21h-.61l-.42-.2h-.2v.82h-.21l-.41-.21h-.41l-.21.21-.2.41H835l-.21.21h-.61l-.21.2-.21-.2-.61.41h-.42v-.21h0l.21-.2h0v-.21l-.21-.2-.2-.42h-.21v.21l-.2.21v.2h-.21v-.62l-.21-.2h0l-.61-.21-.21-.2h-.21l-.2-.21h-.21l-.2.21h-.21l-.21-.21v-.41h0l-.2.2-.62.21V101h0l-.41.61-.41.21-.21.21v.2h0l-.21.21-.61-.21h-.47l-.2.21-.21.2-.41.42-.21.2-.61-.2h-.36v.41h-.61l-.21.2-.21-.2h-.2l-.21-.21h0V103h-1l-.2-.21-.42-.21-.2-.2h-.21l-.2.2-.21.42v.2h-.21l-.2-.2v-.21H820V103h0l-.41-.21h0l-.41.21H819l-.2.2h-.62V103l-.21-.42-.2-.2h0l-.62-.41v.2l-.21.21h-.2v-.21h0l-.42-.2h-.2v-.42h-.21v-.2h0l-.2-.21h0v-.2h0l.2-.21.21-.21.2-.2.21-.62h0l-.21-.21v-.41l-.2-.2-.21-.21v-.41l.21-.21h0v-.2l-.21-.21-.2-.21.2-.41h-.2v-.2h-.21l-.21-.42h-.2v.42h0l-.41-.21v.21h-.21l-.21.2h0l-.2-.2-.21-.21h-.41v-.21h0l-.91-.4v-.82l.21-.21.21-.2v-.21l-.21-.41h0v-.21h0v-.2h-.21l-.2-.21-.21-.21-.2-.2.2-.21h0l-.2-.2h0v-.42h0l-.21-.2h0v.2l-.21-.2h0v-.41h-.41v-.21h-.41l-.21-.21-.2-.2h-.21v.2l-.2.21h-.21v-.21h-.41V91H809l-.2-.21v-.41l-.21-.21H808l.21-.2V89.8H808V90h-.41v-.21l-.21-.62-.2-.2-.21.41h-.2l-.62-.21-.62-.17-.21-.21-.2-.2-.21-.42V88l-.2-.21h-.18l.21-.2h.41v-.21h-.21V87h-.41l-.21-.41v-.42h0v-.2l-.41-1h0v-.21h-.2v-.2h-.18V84.3h-.21l-.61-.41-.21-.21-.41-.41-.21-.62h-.2l-.21.21h-.21v-.21h-.2v-.2h-.62v-.21l.21-.21-.21-.61-.21-.21L800,81h-.21l-.2.42H799l-.21-.21h-.26l-.42-.41v-.21h-.41l-.41-.62-.21-.2h-.2l-.41-.21H796V80h0l-.2.21-.21.21h-.2v.2h-.21l-.21.21h-.61l-.21.2-.41-.2-.62-.21v-.2H793l-.2.2-.21-.2h-.41V81h.62v.21l.2.21h.42l.2.2v.21l.41,1v.41l.42.41.2.21H795V84l.42.21h0v.21h.2l.21.2v.62h0v.21h0l-.21.2h-.2v.21h0v.41h0v.41l.41,1.44h0v.42h0l.2.2h-.61L795,89h-.2v-.21h0l-.21-.2-.2-.21h-.21v.41L793.78,90l-.21,1.23-.2,1.24-.42,1v.62l-.2.41-.21.21-.62.41-.41.62-.41.41-.41.62-.62.61-.41.62-.41.62-.62.41-.41.62-.42.62-.61.41-.62.41-.62.62-.62.41-.41.41-.62.42-.62.41-.61.62-.42.41-.61.2-.83.42-1.23.41-1.24.41-1.24.41-1.23.41-1.24.62-1.23.41-1.24.42-1.24.41-.61.21-.21.2-.62.62-1,1.24-.41.41-.21.2-.2.62-.21.21-.2.2h-.21v.42h.21v.2l.2.21v.41h-.41l-.21.21H767v-.83h-.21v-.2H766l-.21.2h0l.21.21h0l-.21.62v.41l-.2.41-.21.21v.41l.21.2v.21h-.42V116l.21.61v.21L765,117h0v.2h-.21v.21l-.2.2v.83h-.21v.2h-.41v.83l-.21.41-.62,1.24v.61l-.2.21-.21.21v.41l.21.41h0l.2.21v.41l-.2.2v.62h-.21l-.21.41-1,.21-.41.41-.41.41-.21.21v.62l.21.41v.41h-.82v.21l-.21.41v.21l-.21.41-.41.2v-.2h-.2v-.21h-.21l-.21.21h0l-.2-.21h-1.48v-.2l-.21-.21-.21-.21v-.2h-.2l-.21-.21v-.2h0l-.2-.21h-.17l-.21-.21v-.41l-.2-.41-.21-.62-.2-.41v-.21l.2-.41v-.2h0l-.2-.21h-.42l-.2-.21-.41-.41-.21-.2-.41.2-.41.21-.62.2-.41-.2-.21-.21-.21-.2-.2-.42h-.83l-.2-.2-.21-.21-.2-.2-.21-.21h-.41l-.21-.21h-.41l-.21.21h0l-.2.21v.2l-.21.21v.2l-.82.62-.41.21H746l-.41-.21-.2-.2v-.42l1.23-1.64v-.21h-.41l-.41.21-.21-.21-.2-.41h0v-.21h0v-.2l-.21-.21v-.62l.21-.2v-.21h.2l.21-.21h.41l.21.21.41.21h0l.2-.21.21-.21.21-.2.2-.21.62-.2.21-.21v-.21h-.21v-.2h0v-.21h0l-.21-.2-.2-.42v-.2h0v-.21h0v-.41h0v-.41h.2v-.21l-.2-.2h0v-.21h-.21v-.62h0v-.2h-.2v-.62h0v-.21h-.42l-.2-.2h0v.2l-.21.21v.2h-.2v.21h-.21l-.21.21h-1l-.2.2-.41.62-.21.41-1.44.83-.41.41-.21.2L742,117l-.2.2v.41l-.21.21-.41.21-.21.2-.41.41-.41.83-.21.2-.2.21h-.21l-.2.21-.21.41-.21.2-.82.62h-.21v.21l-.2.41h0l.2.62v.2l-.2.42h0l-.21.2h0l-.2.21.2.2V125h-.2v.41H737v.21h0l.21.2.2.21.21.21.82.82v.41l.21.21.41.41.21.21.41.41v.41l-.41.21-.42.2h0v.21l-.2.2v.21h0v.21h0l-.21.2h0l.21.21.2.41.21.21.21.2.61.41v.21l.83.82.2.42.62,1,.21.82v.82l-.41.83-.21.41h-.82l-.42-.41-.2-.21h-.21l-.2.41h-.21l-.21.42-.2.41v.41l.2.41.21.41.21.42.2.2.41.21.42.2h.2l.21.21.2.21h.21l.41.41.41.2.21.21.21.21h0l.61.41,1,.41,1.65.82,1.65,1,1.44.62.21.21,1,1h.2l.21.2v.21h0v.21l.21.41.2.2.41.62.62.41.21.21v.21l.62.82.2.21v.41l.21.2v.21l.41.41.21.21.2.41.21.62v.41h0v.21h0v.41h.2l1,1.44v.41l.21.21h-.21v.2h0v.21h0l.21.21.82,1.44.42.62,1.23.82.21.21.2.41h.21l1,1,.21.21v.41l.2.2.41.83V163h-.2l.2.41h.21l.21.2h.2l.41.42.21.41.21.41.2.41v.41l-.2.42v.41l.61.62v.41l.21.2h.21v.83h-.21v.2h.41v.62l.21.21h.2l.21.2h0l.21.21-.21.21h0v.2h-.41v.21h.2v.2l.21.21h0l.21-.21v-.2h0l.2-.21.21.21h0V171h0v.21h-.21v.2h.21v.41h0l.41.21h.21l.2.21v.41h0v.2l.21.21.21.21-.21.2v.21l.21.2v.62l.2.62.21.41.82,1,.21.21v.2l-.21.21v.41l.21.21v.41h0v.21h.2v.2h0v.21l.21.2.21.42v.41h-.21v.2h.21v.21h0l.41.41v.21l.2.41h.21l.21.21v.61l.41.21v.21l.2.2v.21h0l.21.41h0v.21l.21.2.2.21.83,1.44v.21l.2.2h.21v.41h.2l.21.21v.41l.41.41v.21h0l.41.41v.41l.21.21v.21h0l-.21.2v.21h.21v.2h.21l-.21.21.21.21v.41l.2.2v.21l.21.41h-.21v.21h-.41v.62l.21.2.41.21,1.44.82.21.21.41.2h.2l.21.21v.21h.21l.2.2v.21l.21.2h0v.21h0l.2.41h.21l.21.21v.2l.2.21v.21l.21.41v.2h-.21v.62l.21.21v.41h.2v.62l.21.62-.21.2v.21l-.2.2v.21h.82l.41.41v.41h0V201h0l.21.2h.21l.61.21.62.62.41.41.21.41.21.41v.21l-.21.41v.21H781l.2.2h.21l.2.62.42.21h0v.61l.41.83.2.21.83.61v.21h0v.62l.2.82.21.21v.41l.21.21,1,1,.41.82.2.21h.21l.41.61.41.83v2.06l-.2.41V216l-.21.41v.41l-.2.41v.41h-.42v-.2h0v-.21h0v-.2h-.41v.2h-.2l-.21.21v.82h.66l.2-.2h0v.2h0v.21h0l.21.62h0v.41h0v.2h0V220h0l-.21.21h0V221l.21.21.21-.21-.21-.21.62.21h0l.2.21h0v.2H787l.21.21.2.2v.62h0l-.2.21.2.41h.41l.21.21.21.2v.21l.41.2.2.21v.21l-.2.2h0v.21h.2l.21.2v.21l.21.21V226l.2.21.41.21h.21v.2h0l.21.21h.2v.2h.21v.21h.2l.62.41.21.21h0l.41.2.82.42.42.2v.62h.2l.21.21.2.2v.21l.42.62.2.2v.21l.21.2h.62l.61.62h0V232h0v.2h-.41l.41.21.42.21.2.2V233l-.2.2h-.21l.21.21h.2v.21h.41l.21.2h0l.41.41h.41l.42.21,1.64,1,.62.21.21.2.41.21,1.65.82h.2v.21l.21.2h0l.21.21v.21h0l.61.41h.26l.21.2h.61l.21.21h.21v.21h.61l1,.61h0l.21.21h0V240h.21l.82.62.62.62.2.2.83.21.2.21h0l.21.2h0v.21l.62-.21.62.21,1,.41.62.21.41.2.41.21h.21v.41l.2.21H815l.2.2h.62l.41.21.42.2.2.21,1.86.82,1,.83.2.2h1.65l.41.42h.62l.21.2h.2v.21h.21v.2h.41l.62.83v.41h.2l.21.21.41.2h.21v.21l.2.2.42.21h0l.2.21-.2.2h.2v.21h.83l.2.2.62.21.21.21.41.61.2.21.42.21,1.64.41h0l.21.2.21.21h.2l.41.21H832v.41h.2l.21.21.2.41h.21v.2l.21.21v.62l.2,1v.82l-.2.21h0v.2h0l.41-.2.2.2h.21l.41.21.41.21.21.2.21.41h.2l.21.21.41.41h.21l.61.21.21.2.41.21V260h.21l.2.2v.41l.21.21h.21l.2.21.62.41v.2h.21v.21h.2l.62.62.21.2.41.21h.41l.62.62.62.62h.2l.41-.21h.42l1,.21.41-.21h.41l.62-.41h.41l.21-.21h.2l.41-.62.42-.41.2-.2.21-.21.62-1.44v-.62l-.21-.41-.21-.21v-.62l-.2-.41v-.82l.2-.21h1.45l.41-.41,1.23-1.24h0v-1L851,254v-.2l-.21-.21-.41-.21-.21-.2h-.61l.2-.21.21-.62.2-.2h.21l.41-.62.41-.21h.36l.21-.2h.41l.2-.21v-.21h0l-.2-.2h0l.2-.21.42-.2v-.21l.2-.41,1-1.24.21-.2.2-.42v-.2l.21-.21H855l.62-.2.21-.21.2-.21v-.2l-.2-.41v-1.45l.41-.2.2-.21,1-.41.21-.41v-.41h-.21l-.61-.21-.21-.62h-1l-.21.21h-.61l-.21-.21-.21-.2-.41-.42-.2-.61-.42-1-.41-1-.41-1-.41-1v-1l.62-1v-.42l.2-.2h0l.21-.21h.2v-.62l.21-.2.21-.21.2-.2.21-.21.2-.21.21.21.21-.21V232l-.21-.21-.41-.41v-.21l-.62-.41-.21-.2-.61-.83v-.2l-.21-.21h-.21l.21-.21v-1.44h0l.21-.2.2-.21.41-.21h.18l.21-.2v-1.44l.2-.21h.62v-.82h.21l.41-.42.2-.2.62-.41h.21v-.21l-.21-.21v-1l.21-.2h.41l.62-.21.2-.2v-.42l-.2-.61-.21-.42h0v-.2l-.62-.41-.2-.21v-1l-.21-.21v-.61h0v-.42h-.2l-.42-.41-.2-.41.2-.21H856v-.41h0v-.2l.21-.21v-.21l.2-.2v-4.74l-.2-1.24v-.41l.2-.2.21-.21.21-.41V207l.2.21.21-.41v-.21l.2-.21.83-.2h.2l.21-.42-.21-.2h-.2l-.21-.21h0l.21-.2V205l.41-.21h.21v-.41l.2-.2h0Z"/><path class="cls-3" d="M896.6,63a191.33,191.33,0,0,1,14.21,17.31C890,60.92,884,49.18,854.36,36a142,142,0,0,0-31.1-9.47c-26-3.09-52.12-.83-76.43,8.86a125.08,125.08,0,0,0-39.14,22.24A143.23,143.23,0,0,0,691,74.52a162.15,162.15,0,0,0-11.33,15.24,137.52,137.52,0,0,0-10.09,18.75,63.29,63.29,0,0,0-3.71,9.89c-1.65,6.59-3.09,14.83-4.54,21.63a137.52,137.52,0,0,0-.61,43c5.76,34.41,6.59,38.32,23.07,68.6a126.71,126.71,0,0,0,15.86,23.08s.21.62-.2.2a19.11,19.11,0,0,1-1.86-2.06,19.34,19.34,0,0,1-2.07-1.77,6.87,6.87,0,0,0,1.44,4.33,37.55,37.55,0,0,0,2.68,3.09c1.65,2.06,3.92,3.7,5.56,5.56,1.65,1.65,4.12,3.29,5.36,4.53a6,6,0,0,0,3.09,1,79,79,0,0,1-6-6,8.19,8.19,0,0,0-1.45-1.24L705,281.11a41.75,41.75,0,0,0-3.09-3.29c-.83-1.24,7.62,6.18,9.68,8.24,3.91,3.29,7.83,6.8,12,9.68,13,9.27,15.66,9.89,28.84,15,10.92,3.91,27.19,6.59,38.52,7.21,19.16,1,39.35-.62,57.48-6.8,16.69-6,24.93-9.06,41.2-23.9,7.83-7,13.39-15.65,19.78-24.3,6.18-8.86,13.18-18.34,17.51-28.23,4.94-12,9.89-32.14,11.12-45.53,1.24-14.83,2.06-39.34-.41-53.15-4.53-26.57-19.77-56-41-73.13ZM748.06,303c-33.37-18.13-55.62-37.9-70.86-74.37C671,214,664,187.2,665.45,171.75c.62-7.21,1.45-29,3.51-36,6.18-21.63,6.18-25.95,20.6-45.94C698.42,78.89,708.3,71.07,718,59.74c6.8-6.19,14-9.89,22.25-13.81,13.8-6.18,10.09-3.29,22.45-6.8a151.65,151.65,0,0,1,33.37-5.56c9.27-.41,11.13-2.26,21.64-.82,35.63,6.18,37.49,9.89,67.36,29.87,24.31,17.51,39.14,50.88,47.38,78.49,8.45,30.69,0,61.8-12.36,90-4.74,10.72-2.68,11.13,1.44,1.65,1.65-3.71,7.42-15,7.42-14.83.41-.21,2.27-1.85,0,3.91-1.85,4.33-7.62,16.07-9.06,19-22.46,44.91-61.19,72.31-114.13,74-14.22.62-31.93.62-46.56-4.12a64.74,64.74,0,0,1-9.48-3.91c-1.44-.82-1-1,0-.82,1.86.61,3.5,1.23,5.36,1.85,5.77,2.88,12,3.5,6.8,1.44"/></g></g></svg>